<?xml version="1.0" encoding="UTF-8"?><svg id="katman_2" xmlns="http://www.w3.org/2000/svg" viewBox="0 0 650.07 327.21"><defs><style>.cls-1{fill:#bf2032;}.cls-1,.cls-2{stroke-width:0px;}.cls-2{fill:#454a4f;}</style></defs><g id="Layer_1"><path class="cls-1" d="m431.89,54.31c-1.37-.03-2.46-1.33-2.43-2.94.03-1.59,1.17-2.87,2.53-2.84,1.37.02,2.46,1.34,2.43,2.92-.03,1.59-1.16,2.88-2.53,2.85m42.63,12.63c-2.47,0-4.57-1.57-5.39-3.75-1.45,2.11-4.29,5.96-11.55,5.83-7.86-.14-10.71-8.44-9.4-23.4,1.4-15.99-4.15-24.6-4.15-24.6-4.43-8.25-12.61-6.52-21.95-17.08-4.28-4.85-4.77-4.74-7.28-2.28-.1.2-.21.4-.31.6-.66,1.97-6,16.9-20.16,28.51-3.32,2.73-4.97,5.1-4.89,7.03.12,3.07,4.63,6.21,8.99,9.23,1.94,1.35,3.49,3.11,4.84,4.94.89,1.36,4.57,6.93,6.05,9.19,1.69,2.59,7.26,3.3,10.65-1.36-1.98,3-4.36,4.87-7.1,5.6-.63.16-1.24.24-1.81.24-4.08,0-6.67-4-8.98-7.57-1.8-2.77-3.66-5.62-6.19-7.39-5.25-3.65-10.69-7.41-10.9-12.71-.13-3.46,2-6.95,6.52-10.67,5.46-4.47,9.52-9.53,12.45-14.03.54-.89,2.44-4.26,1-6.38-1.66-2.44-9.3-1.95-16.01-1.01-6.27.91-16.92,2.66-27.39,9.96-35.27,25.17-23.51,73.74-19.42,87.13h18.66c-1.59-5.05-.31-8.67,1.75-8.71,2.05-.04,3.88,3.35,2.12,8.71h18.9c-.09-1.87-.44-4.51-1.51-7.37-2.06-5.53.37-9.79,4.71-9.84.39,0,.75.06,1.11.12.14.02.29.02.42.06,2.25.58,3.78,2.54,4.06,5.26.01.12.04.22.04.35,0,.18-.01.35-.01.52-.03,1.1-.24,2.27-.71,3.52-.87,2.31-1.25,4.44-1.42,6.18-.03.22-.06.45-.08.7,0,.02,0,.05.01.08-.01.15-.02.27-.02.42h18.89c-1.77-5.36.07-8.76,2.11-8.71,2.06.04,3.34,3.66,1.75,8.71h17.59c-.06-.6-.13-1.3-.24-2.11-1.03-7.3-1.88-10.2-2.55-13.35-.46-2.24-.73-4.5-.58-6.45,0,0,0,0,0-.01.45-8.84,8.16-6.6,8.16-6.6,6.89,2.53,11.9,3.8,15.4,4.42,16,2.64,22.41-8,24.23-11.99-.13,0-.26.04-.4.04"/><path class="cls-2" d="m631.33,180.42c-6.61,7.09-9.21,13.83-7.78,20.12.35,1.53.9,3.02,1.64,4.41-.02,0-.04.01-.06.02.05.1.14.17.2.26.9,1.63,2.11,3.11,3.73,4.36-20.53,19.6-36.48,29.53-47.74,29.53-2.64,0-4.74-.56-6.33-1.68-1.59-1.2-2.39-2.77-2.39-4.76,0-2.79,1.55-6.25,4.66-10.39,3.1-4.22,9.79-11.82,20.06-22.82,8.91-9.7,15.67-16.47,20.3-20.29,4.61-3.83,8.11-5.73,10.51-5.73,2.64,0,4.91,1.27,6.8,3.79-1.26.96-2.49,1.98-3.6,3.18M92.02,274.5c-3.91,4.62-8.87,10.35-17.21,19.03-19.07,18.86-35.42,28.3-49.07,28.3-3.82,0-7.02-1.24-9.6-3.72-2.59-2.49-3.88-5.58-3.88-9.29,0-11.37,12.51-24.3,38.88-36.88,18.26-8.74,36.2-14.91,63.61-23.89-15.96,18.32-18.83,21.83-22.74,26.45m538.38-107.22c-36.68-2.39-47.54,32.58-77.03,40.15-2.16.56-4.26.93-6.53.71-2.23-.21,1.12-1.93,1.97-2.72,6.8-6.34,12.36-12.71,15.39-21.88,3.73-11.26-5.72-14.42-15.34-10.23-8.97,3.9-20.28,15.75-17.98,26.91.57,2.78,1.56,5.12,3.42,7.31,3.95,4.63-2.15,6.02-4.87,8.33-6.41,5.45-32.47,25.7-43.79,22.25-3.08-.94-4.28-2.5-4.32-5.73-.06-4.46,1.48-8.04,3.48-11.82,3.01-5.7,7.18-10.34,11.27-15.17,11.71-13.84,23.53-27.6,35.34-41.37,18.87-22,35.16-45.7,59.27-63.41,4.72-3.47-4.86-3.2-8.19-3.2h-10.83c-5.01,0-8.71.94-12.13,5-25.17,29.84-50.19,59.8-76.56,88.63-12.58,13.75-24.4,27.85-40.1,38.67-4.34,2.99-8.8,5.53-13.77,7.39-1.59.59-6.9,3.18-7.01.13-.19-4.85,7.6-10.7,9.99-13.26,10.03-10.72,22.28-18.21,24.26-35.56,3.04-26.58-18.56-20.62-34.96-6.61-3.29,2.81-6.58,5.62-9.86,8.43-1.64,1.41-3.29,2.81-4.93,4.21-.82.7-1.64,1.4-2.46,2.11-.41.35-.82.7-1.24,1.05-.21.17-.41.35-.61.52-.47.41.1-.61.26-.89,12.44-23.61-.51-33.66-23.26-20.88-7.72,4.34-14.7,9.65-21.86,14.76-.88.63-1.76,1.26-2.64,1.89-.34.24-1.61,1.33-1.05.7.36-.4.72-.81,1.07-1.22,1.44-1.62,2.86-3.24,4.3-4.86,2.86-3.24,5.73-6.47,8.6-9.72,1.28-1.44,7.34-5.7,3.82-6.83-4.37-1.39-8.43-.05-12.64-.05-5.75,0-10.33.58-14.56,5.24-17.7,19.54-33.73,39.9-56.82,54.44-6.94,4.37-12.5,9.66-22.13,7.93-3.36-.6-2.98-3.06-1.23-5.4,3.14-4.21,6.77-7.96,10.28-11.84,4.21-4.66,8.42-9.32,12.63-13.97,8.41-9.32,16.83-18.63,25.24-27.94,2.29-2.53,11.32-10.15,4.99-8.46-6.27,1.67-12.16,0-18.25,0-7.93,0-10.84,5.3-15.14,10.1-4.19,4.67-8.39,9.34-12.58,14.01-14.37,15.99-27.68,31.7-48.06,41.49-8.92,4.29-17.42,1.57-10.34-7.19,3.52-4.35,7.32-8.43,11.04-12.59,8.36-9.37,16.73-18.73,25.09-28.08,4.18-4.68,8.37-9.36,12.54-14.04,4.15-4.64-4.96-3.7-8.56-3.7-6.46,0-12.67-2.94-18.64,3.03-18.46,18.43-38.16,33.77-61.53,45.73-2.18,1.12-4.37,2.2-6.58,3.26-1.11.53-2.22,1.05-3.33,1.57-.98.45-4.33,2.89-2.98,1.22,4.88-6,9.77-12,14.66-17.99,27.77-33.96,54.96-68.12,87.01-98.48,1.46-1.39,13.78-11.05,11.37-14.07-1.58-1.98-3.16-.6-4.84-.21-5.11,1.2-10.23,1.95-15.48,2.27-25.97,1.57-50.4-1.62-75.37-8.43-18.68-5.1-38.28,5.54-51.84,15.54-3.16,2.34-8.9,8.04-2.95,8.45,3.9.27,12.1-6.37,15.09-7.39,6.75-2.3,13.22-3.06,20.32-2.26,16.69,1.88,31.15,10.57,47.94,12.18,7.46.72,14.74.49,22.14-.55,3.84-.54,7.63-1.31,11.39-2.26,1.94-.49,3.86-1.03,5.78-1.62,1.15-.36,4.14-2.46,3.44-.26-.96,2.99-3.74,3.03-5.62,4.52-2.11,1.66-4.2,3.33-6.29,5-4.19,3.37-8.35,6.76-12.47,10.21-8.54,7.14-16.89,14.49-25.04,22.05-16.37,15.2-31.99,31.01-46.77,47.77-7.55,8.56-14.87,17.31-22,26.22-4.61,5.76-6.63,13.13-15.47,15.46-22.45,5.9-44,13.59-65.11,23.24C36.58,271.31.73,289.29.01,309.69c-.5,14.02,15.81,17.74,26.55,17.51,12.24-.26,22.33-3.83,32.65-10.06,13.89-7.69,26.01-17.25,37.79-27.72,15.48-13.75,30.47-27.93,44.74-42.96,8.71-9.18,8.77-10.15,20.49-15.54,6.52-3,12.9-6.23,19.14-9.78,3.24-1.84,6.43-3.75,9.56-5.74,1.61-1.02,3.21-2.07,4.79-3.12,3.93-2.64,7.62-5.58,11.34-8.49,1.43-1.12,6.75-6.01,4.25-3.39-.47.5-.9,1.04-1.35,1.57-6.72,7.96-12.56,14.91-12.41,26.52.06,4.35,1.36,7.41,4.53,10.41,8.17,7.71,19.62,3.72,27.64-.52,7.23-3.81,13.4-8.68,19.33-14.2.57-.53,2.21-2.6,1.92-1.14-.1.5-.18.99-.25,1.49-.14.92-.23,1.84-.26,2.77-.79,22.6,21.36,17.95,36.32,9.44,1.88-1.07,8.55-6.37,5.65-3.16-.39.43-.78.87-1.17,1.29-.78.86-1.56,1.71-2.33,2.57-6.6,7.32,11.19,3.69,16.36,3.69,5.66,0,8.46-3.1,11.78-6.8,9.43-10.49,19.38-20.26,30.37-29.12,11.64-9.39,23.33-18.46,36.5-25.78,3.17-1.76,6.12-3.61,9.94-4.02.67-.07,1.28-.12,1.92.2,2.59,1.27-1.55,5.6-2.65,6.81-2.71,2.98-5.41,5.96-8.11,8.94-5.41,5.96-10.83,11.91-16.24,17.87-5.41,5.95-10.85,11.88-16.24,17.85-2.69,2.98-5.38,5.96-8.08,8.94-1.45,1.6-4.7,5.12-1.2,5.12,4.48,0,22.81,1.73,27.09-2.98,7.37-8.12,14.57-16.37,22.4-24.07,9.7-9.55,19.7-18.69,30.31-27.23,6.46-5.2,11.36-11.58,21.02-12.29,3.47-.26,4.3,2.02,3.01,4.98-3.04,6.92-28.42,33.17-33.04,38.39-1.01,1.14-1.89,2.37-2.79,3.59-8.1,10.92-6.8,23.05,8.38,22.43,17.26-.71,38-17.38,48.78-28.04.12-.13.28-.17.42-.23,2.24-1.02-.36,2.44-.41,3.68-.19,4.45.47,8.41,2.37,12.48,12.64,27.08,46.12.16,60.85-11.36,1.58-1.23,7.57-8.84,10.69-8.05,1.35.34,2.69.54,4.08.57,4.89.15,9.18-1.09,13.61-2.87,3.01-1.21,5.87-2.66,8.69-4.27,3.52-2.01-1.48,3.78-2.23,5.66-7.36,18.63,4.19,34.89,24.37,31.82,16.76-2.55,27.5-11.8,39.2-22.28,4.27-3.83,8.43-7.71,12.18-12.08,12.99-15.11,10.28-40.23-11.85-41.67"/></g></svg>